<svg width="512" height="512" viewBox="0 0 512 512" fill="none" xmlns="http://www.w3.org/2000/svg">
  <rect width="512" height="512" rx="128" fill="#064E3B"/>
  <path d="M256 80C158.8 80 80 158.8 80 256C80 353.2 158.8 432 256 432C353.2 432 432 353.2 432 256C432 158.8 353.2 80 256 80ZM256 392C180.8 392 120 331.2 120 256C120 180.8 180.8 120 256 120C331.2 120 392 180.8 392 256C392 331.2 331.2 392 256 392Z" fill="#D4AF37"/>
  <path d="M256 140C191.9 140 140 191.9 140 256C140 320.1 191.9 372 256 372C320.1 372 372 320.1 372 256C372 191.9 320.1 140 256 140ZM256 342C208.5 342 170 303.5 170 256C170 208.5 208.5 170 256 170C303.5 170 342 208.5 342 256C342 303.5 303.5 342 256 342Z" fill="#D4AF37" opacity="0.5"/>
  <path d="M256 180V220M256 292V332M292 256H332M180 256H220" stroke="#D4AF37" stroke-width="12" stroke-linecap="round"/>
  <circle cx="256" cy="256" r="24" fill="#D4AF37"/>
  <path d="M210 210L230 230M282 282L302 302M210 302L230 282M282 230L302 210" stroke="#D4AF37" stroke-width="8" stroke-linecap="round"/>
</svg>
